<?xml version="1.0" encoding="utf-8"?>
<!-- Generator: Adobe Illustrator 27.3.1, SVG Export Plug-In . SVG Version: 6.00 Build 0)  -->
<svg version="1.1" id="logo" xmlns="http://www.w3.org/2000/svg" xmlns:xlink="http://www.w3.org/1999/xlink" x="0px" y="0px"
	 viewBox="0 0 1000 1000" style="enable-background:new 0 0 1000 1000;" xml:space="preserve">
<style type="text/css">
	.st0{fill:#115E59;}
	.st1{fill:none;}
	.st2{fill:#042F2E;}
	.st3{fill:#0D9488;}
	.st4{fill:#FACC15;}
	.st5{fill:#FEFCE8;}
</style>
<g>
	<g id="bg_00000062173320780493342500000001210611199719068292_">
		<path class="st0" d="M619.35,800.81l-194.03,6.32c-9.24,0.3-18.29-2.66-25.56-8.37l-152.7-119.88c-7.27-5.71-12.3-13.8-14.2-22.84
			l-39.92-189.99c-1.9-9.05-0.55-18.48,3.81-26.63l91.54-171.2c4.36-8.15,11.45-14.51,20.03-17.95l180.17-72.3
			c8.58-3.44,18.1-3.75,26.88-0.88l184.49,60.42c8.79,2.88,16.28,8.76,21.16,16.61L823.51,419c4.88,7.85,6.84,17.17,5.53,26.32
			l-27.47,192.18c-1.31,9.15-5.8,17.55-12.68,23.72L644.32,790.79C637.43,796.96,628.59,800.51,619.35,800.81z"/>
		<path class="st1" d="M817.23,394.48L699.27,235.75c-4.82-6.48-11.76-11.06-19.61-12.92l-192.4-45.77
			c-7.85-1.87-16.12-0.91-23.33,2.71L325.6,249.09l328.78,539.12c4.81-1.83,9.18-4.72,12.76-8.51l135.83-143.74
			c5.55-5.87,8.85-13.5,9.32-21.56l11.66-197.42C824.43,408.92,822.05,400.96,817.23,394.48z"/>
		<g>
			<path class="st1" d="M316.26,733.21l84.93,66.67c6.35,4.99,14.25,7.57,22.32,7.31l197.66-6.44c2.86-0.09,5.67-0.55,8.38-1.33
				c-38.93-51.39-80.96-112.86-122.02-184.53L316.26,733.21z"/>
			<path class="st1" d="M346.58,234.92c-13.31,5.34-26.63,10.69-39.94,16.03c-7.49,3.01-13.69,8.56-17.49,15.68l-93.25,174.4
				c-3.81,7.12-4.98,15.35-3.32,23.25l40.66,193.54c1.66,7.9,6.05,14.96,12.4,19.95l61.57,48.34l194.98-120.61
				c-13.18-23.34-26.24-47.72-39.04-73.18"/>
			<g>
				<path class="st2" d="M507.63,615.08L316.38,733.21l-9.18-7.2l195.02-120.45c-13.19-23.36-26.26-47.76-39.08-73.24
					c-15.02-29.86-28.65-59.12-41.04-87.64l-202.62-47.75l-23.58,44.11c-3.81,7.12-4.98,15.35-3.32,23.25l40.66,193.54
					c1.66,7.9,6.05,14.96,12.4,19.95l155.55,122.12c6.35,4.99,14.25,7.57,22.32,7.31l197.66-6.44c2.86-0.09,5.67-0.55,8.38-1.33
					C590.65,748.08,548.66,686.67,507.63,615.08z"/>
				<path class="st2" d="M411.49,419.74c-27.87-66.96-48.89-129.34-64.91-184.82c-13.31,5.34-26.63,10.69-39.94,16.03
					c-7.49,3.01-13.69,8.56-17.49,15.68L230.12,377L411.49,419.74C411.49,419.74,411.49,419.74,411.49,419.74z"/>
				<path class="st2" d="M422.09,444.67L422.09,444.67"/>
				<path class="st2" d="M411.49,419.74"/>
				
					<rect x="213.5" y="386.96" transform="matrix(0.4715 -0.8818 0.8818 0.4715 -222.4384 402.7287)" class="st2" width="22.59" height="0"/>
				<path class="st3" d="M510.29,613.44c-1.81-3.15-3.62-6.33-5.42-9.52l-2.65,1.64c1.8,3.2,3.61,6.37,5.42,9.53L510.29,613.44z"/>
			</g>
		</g>
	</g>
	<g id="bg_deco">
		<path class="st2" d="M149.57,662.73c-7.02,2.11-23.3-33.68-29.52-47.34c-13.58-29.85-20.37-44.77-18.83-63.14
			c2.88-34.46,30.86-60.64,35.59-58.18c4.49,2.33-16.13,28.21-9.88,63.84c3.9,22.22,14.25,25.44,21.55,54.84
			C153.84,634.36,155.3,661.01,149.57,662.73z"/>
		<path class="st2" d="M199.23,741.12c-6,5.01,12.98,52.7,53.08,76.42c28.59,16.92,60.55,17.28,61.83,13.27
			c1.37-4.27-33.68-8.58-59.16-39.85c-8.74-10.73-12.88-20.37-27.81-33.26C224.24,755.16,203.67,737.4,199.23,741.12z"/>
		<path class="st2" d="M469.21,876.47c-0.89,2.89,27.79,23.31,62.88,21.3c6.3-0.36,27.32-7.74,69.12-22.48
			c15.07-5.31,20.48-7.31,20.24-9.27c-0.53-4.24-27.23-7.32-53.61-1.06c-19.45,4.62-20.07,9.89-37.26,14.06
			C496.67,887.24,470.04,873.76,469.21,876.47z"/>
		<path class="st2" d="M690.1,851.9c4.93,6.65,41.66-11.39,66.52-29.14c15.65-11.18,31.12-22.51,40.61-43.34
			c10.4-22.82,9.32-47.58,5.01-48.72c-5.65-1.49-10.37,39.17-44.17,61.22c-12.47,8.14-16.09,5.38-31.01,15.23
			C704.41,822.12,685.9,846.24,690.1,851.9z"/>
		<path class="st2" d="M823.16,263.44c-5.34,3.11,4.53,42.04,29.53,71.89c10.54,12.58,15.43,13.6,21.16,24.98
			c14.05,27.92,1.88,56.13,5.97,57.26c3.88,1.07,21.29-22.66,18.97-50.41c-1.47-17.59-13.37-32.88-37.12-62.75
			C841.25,278.72,827.22,261.07,823.16,263.44z"/>
		<path class="st2" d="M564.1,137.93c1.57,5.19,38.95-11.32,71.25,7.33c6.03,3.48,11.25,7.83,13.01,6.3
			c3.19-2.76-5.19-24.71-21.41-33.24C600.08,104.19,562.46,132.51,564.1,137.93z"/>
		<path class="st2" d="M727.58,516.25c-2.51,0.76,5.47,18.82-3.54,34.42c-1.68,2.92-3.78,5.44-3.05,6.28
			c1.33,1.54,11.94-2.51,16.06-10.34C743.88,533.63,730.2,515.45,727.58,516.25z"/>
		<path class="st2" d="M498.38,256.43c0.76,2.51,18.82-5.47,34.42,3.54c2.92,1.68,5.44,3.78,6.28,3.05
			c1.54-1.33-2.51-11.94-10.34-16.06C515.77,240.13,497.59,253.82,498.38,256.43z"/>
		<path class="st2" d="M143.48,355.53c6.1,0.01,0.37-37.94,26.02-63.92c11.82-11.97,17.62-8.55,31.82-21.96
			c23.08-21.78,30.45-52.19,27.01-54.21c-2.41-1.42-8.86,11.98-29.63,29.51c-16.88,14.25-21.25,12.67-35.28,25.69
			c-10.3,9.55-21.65,20.07-26.6,36.81C129.91,330.77,138.56,355.52,143.48,355.53z"/>
		<g>
			<circle class="st2" cx="741.45" cy="151.87" r="49.78"/>
			<g>
				<path class="st4" d="M760.23,192.04c4.29,0,8.46-0.51,12.47-1.44c11.3-9.12,18.53-23.08,18.53-38.73
					c0-27.49-22.29-49.78-49.78-49.78c-13.47,0-25.69,5.36-34.65,14.06c-1.87,5.74-2.9,11.87-2.9,18.25
					C703.9,166.24,729.12,192.04,760.23,192.04z"/>
			</g>
		</g>
	</g>
	<g id="bee">
		<g>
			<path class="st5" d="M208.07,555.86c22.62,23.86,86.79,59.93,157.15,52.11c70.48-7.83,146.24-52.89,141.81-85.45
				c-4.41-32.43-88.22-51.64-153.57-45.05C284.97,484.37,182.16,528.52,208.07,555.86z"/>
			<path d="M345.44,611.59c-31.54,0-58.94-7.99-77.64-15.44c-29.66-11.82-51.25-27.66-61.57-38.55l0,0
				c-4.7-4.96-5.97-10.86-3.66-17.06c10.3-27.71,92.81-59.75,150.63-65.57c66.98-6.75,151.64,12.81,156.32,47.22
				c1.08,7.92-1.97,16.55-9.07,25.65c-22.82,29.26-82.11,56.78-134.96,62.65C358.66,611.25,351.96,611.59,345.44,611.59z
				 M209.9,554.12c24.41,25.76,88.66,58.71,155.03,51.34c51.67-5.74,109.45-32.42,131.54-60.74c6.23-7.98,8.93-15.34,8.05-21.86
				c-1.88-13.83-20.87-26.61-52.09-35.06c-29.95-8.11-66.86-11.03-98.72-7.82c-27.71,2.79-61.87,11.8-91.38,24.1
				c-30.25,12.61-50.81,26.89-55.02,38.2C205.68,546.69,206.52,550.56,209.9,554.12L209.9,554.12z"/>
		</g>
		<g>
			<path class="st5" d="M754.04,287.18c5.11,32.48-5.46,105.33-54.58,156.31c-49.2,51.07-131.12,83.61-154.22,60.23
				c-23-23.28,12.91-101.4,57.99-149.16C650.48,304.5,748.19,249.97,754.04,287.18z"/>
			<path d="M568.87,513.96c-11.32,0-19.87-2.85-25.42-8.46c-24.41-24.7,11.74-103.72,57.95-152.67
				c39.89-42.26,115.62-88.08,143.85-79.34c6.32,1.96,10.23,6.56,11.29,13.31l0,0c2.33,14.82,1.71,41.59-7.02,72.3
				c-6.64,23.36-20.4,57.26-48.24,86.15c-36.9,38.3-94.87,68.48-131.98,68.72C569.16,513.95,569.01,513.96,568.87,513.96z
				 M737.17,277.43c-12.84,0-33.44,7.53-57.25,21.16c-27.75,15.88-55.73,37.45-74.85,57.7c-21.98,23.29-42.18,54.31-54.03,82.99
				c-12.35,29.9-13.81,52.74-4,62.66c4.57,4.62,11.91,6.96,21.83,6.96c0.13,0,0.27,0,0.4,0c35.91-0.23,92.3-29.73,128.37-67.17
				c46.34-48.1,59.42-119.1,53.9-154.16l0,0c-0.76-4.85-3.31-7.88-7.79-9.27C741.87,277.72,739.67,277.43,737.17,277.43z"/>
		</g>
		<g id="ears_00000101783701917942496120000011021846856656249477_">
			<path id="ears_00000141451830548474345020000009780082422666154685_" d="M520.16,332.77c1.76,1.4-0.29,6.72-1.48,9.83
				c-4.09,10.62-10.43,13.86-15.08,20.29c-10.34,14.31-3.63,32.5-5.68,32.74c-2.24,0.26-12.58-21.38-4.15-40.54
				C500.39,340.05,516.95,330.22,520.16,332.77z"/>
		</g>
		<g id="inside_wings">
			<g>
				<g>
					<path class="st5" d="M401.93,522.33c23.8-19.77,49.85-22.31,61.75-22.34c3.54-0.01,5.78,2.6,5.23,6.1
						c-1.85,11.75-8.34,37.11-31.52,57.61c-22.78,20.15-58.52,32.81-67.68,22.13C360.56,575.15,378.53,541.77,401.93,522.33z"/>
					<path d="M401.05,521.28c16.91-13.73,38.3-21.3,59.98-22.02c0,0,2.32-0.04,2.32-0.04c5.26-0.15,7.36,4.16,6.05,8.88
						c-0.79,4.57-1.92,9.08-3.35,13.49c-9.48,30.2-33.47,53.16-62.53,64.82c-20.52,8.46-46.5,9.8-35.73-20.71
						C374.63,548.21,386.78,533.23,401.05,521.28L401.05,521.28z M402.81,523.39c-13.5,11.84-25,26.77-31.28,43.63
						c-1.88,5.8-4.55,14.66,1.28,18.85c8.15,4.43,21.04,0.19,29.39-2.85c22.45-8.71,42.92-24.09,54.76-45.4
						c4.43-7.94,7.79-16.51,9.89-25.37c0.56-3.62,3.36-9.53-1.46-11.23c-1.06-0.39-3.13-0.21-4.3-0.2
						C439.85,501.5,418.96,509.67,402.81,523.39L402.81,523.39z"/>
				</g>
				<g>
					<path class="st5" d="M388.76,501.15c29.2-10.23,50.17-12.33,61.33-8.21c3.32,1.23,4.51,4.45,2.77,7.54
						c-5.83,10.37-20.76,31.87-49.63,43c-28.38,10.94-93.96,21.67-105.91,14.25C269.75,540.58,360.05,511.21,388.76,501.15z"/>
					<path d="M388.26,499.72c7.29-2.46,14.7-4.61,22.24-6.21c11.26-2.31,22.96-4.13,34.42-2.27c3.61,0.7,8.83,1.58,9.07,6.16
						c0.15,2.06-1.14,3.77-2.08,5.46c-0.99,1.65-2.02,3.27-3.09,4.86c-10.81,15.93-26.28,28.66-44.1,36
						c-21.52,8.36-44.33,12.83-67.1,16.22c-7.62,1.04-15.29,1.84-23.06,2.05c-6.01-0.04-12.19,0.36-17.94-2.37
						c-4.06-2.17-7.63-6.71-6.09-11.5C296.63,528.53,367.83,507.1,388.26,499.72L388.26,499.72z M389.26,502.59
						c-19.28,7.18-88.46,29.26-94.92,46.6c-1.24,4.76,4.89,7.88,9.05,8.41c11.12,1.62,22.62,0.38,33.82-0.74
						c15.14-1.75,30.22-4.41,45.04-7.99c29.26-6.35,53.17-20.33,69.01-46.38c0.9-1.59,2.15-3.15,2.03-5.05
						c-0.02-1.82-1.37-3.38-3.04-4.04c-5.35-1.98-11.18-2.16-16.83-1.82C418.22,492.76,403.57,497.52,389.26,502.59L389.26,502.59z"
						/>
				</g>
			</g>
			<g>
				<g>
					<path class="st5" d="M597.92,425.89c-30.19,6.8-48.09,25.89-55.37,35.3c-2.17,2.8-1.46,6.17,1.64,7.87
						c10.44,5.7,34.49,16.03,64.87,10.17c29.87-5.76,61.7-26.36,58.82-40.12C665.01,425.33,627.59,419.2,597.92,425.89z"/>
					<path d="M598.17,427.02c-20.78,4.41-40.17,15.87-53.68,32.36c0,0-1.43,1.78-1.43,1.78c-2.07,2.27-1.76,5.75,1,7.3
						c4.66,2.55,9.61,4.65,14.63,6.38c28.95,10.39,61.5,4.26,87.19-11.68c5.13-3.14,10.02-6.72,14.1-10.96
						c6.42-6.69,9.49-14.17-0.13-19.65C642.85,423.36,616.89,423.28,598.17,427.02L598.17,427.02z M597.66,424.75
						c18.16-4.04,37.41-4.65,55.44,0.54c16.53,5.16,23.27,15.83,9.6,29.56c-9.02,8.87-20.2,14.8-31.81,19.38
						c-23.01,9.32-49.24,10.23-72.57,1.67c-4.35-1.56-8.59-3.42-12.67-5.58c-4.25-1.74-6.43-5.69-3.21-9.64c0,0,1.44-1.8,1.44-1.8
						C557.62,442.22,576.56,429.77,597.66,424.75L597.66,424.75z"/>
				</g>
				<g>
					<path class="st5" d="M589.17,402.53c-25.92,16.9-40.38,32.22-43.92,43.58c-1.06,3.38,0.78,6.29,4.28,6.8
						c11.78,1.71,37.92,2.99,64.35-13.09c25.98-15.81,74.49-61.23,75.9-75.22C693.01,332.29,614.65,385.92,589.17,402.53z"/>
					<path d="M589.6,403.18c-12.81,8.23-25.39,17.22-35.48,28.72c-3.09,3.62-5.85,7.56-7.76,11.92c-1.11,2.42-2.01,5.74,0.43,7.63
						c1.46,1.25,3.47,1.21,5.29,1.47c1.9,0.2,3.8,0.34,5.7,0.44c19,0.92,38.34-3.77,54.51-13.72c19.26-12.25,36.23-27.99,52.3-44.12
						c7.77-8.14,15.81-16.45,21.37-26.2c1.77-3.01,2.43-6.36,1.49-9.45c-2.19-6.27-13.29-2.46-18.05-0.98
						C640.87,369.61,615.32,387.03,589.6,403.18L589.6,403.18z M588.74,401.87c18.49-11.87,77.95-55.71,97.58-48.55
						c4.73,1.72,6.17,7.3,5.37,11.85c-2.16,10.41-17.1,25.05-24.59,32.83c-16.55,16.03-34.06,31.34-53.86,43.25
						c-16.73,9.61-36.27,14.04-55.5,12.82c-1.92-0.13-3.83-0.3-5.74-0.54c-1.9-0.28-4.03-0.32-5.55-1.68
						c-3.43-2.96-0.93-7.58,0.71-10.82c5.63-10.11,14.29-18.11,23.06-25.48C576.15,410.67,582.36,406.15,588.74,401.87
						L588.74,401.87z"/>
				</g>
			</g>
		</g>
		<g id="body_00000072969753152341075380000001384290947776241064_">
			<g>
				<path id="body_00000121255617124925875640000013626923203068155309_" d="M608.3,541.77c22.27,47.72,7.81,95.48-1.09,117.04
					c-2.65,6.42-9.65,9.86-16.35,8.04c-22.51-6.1-69.18-23.78-93.4-70.54c-23.81-45.97-22.63-113.64,5.99-127.73
					S586.41,494.86,608.3,541.77z"/>
				<path d="M594.45,670.71c-1.48,0-2.98-0.19-4.47-0.6c-25.24-6.84-71.21-25.31-95.52-72.24c-16.75-32.33-21.93-76.98-12.33-106.18
					c4.2-12.78,11.06-21.82,19.82-26.13c8.76-4.31,20.11-4.23,32.8,0.23c29,10.21,61.21,41.56,76.61,74.55
					c22.35,47.9,8.95,95.59-1.03,119.76C607.63,666.64,601.25,670.71,594.45,670.71z M516.59,469.14c-4.36,0-8.28,0.83-11.65,2.49
					c-7.1,3.49-12.76,11.16-16.39,22.18c-9.09,27.64-4.08,70.1,11.91,100.96c23.12,44.64,67.12,62.28,91.29,68.83
					c5.04,1.37,10.35-1.25,12.34-6.07c9.56-23.14,22.42-68.77,1.15-114.32l0,0c-14.7-31.5-45.29-61.37-72.73-71.03
					C526.77,470.15,521.41,469.14,516.59,469.14z"/>
			</g>
			<g id="yellow">
				<path class="st4" d="M618.98,601.54c-23.25,17.59-49.09,30.31-77.21,38l-5.49,1.5c20.26,14.81,41.5,22.28,54.58,25.82
					c6.7,1.81,13.7-1.63,16.35-8.04c5.11-12.37,12.04-33.39,12.81-58.07L618.98,601.54z"/>
				<path class="st4" d="M601.84,566.71c-24.09,15.88-49.93,28.6-77.21,38l-18.21,6.27c6.59,9.29,14.07,17.17,21.92,23.81l9.49-3.27
					c27.28-9.4,53.12-22.11,77.21-38l4.94-3.26c-0.44-10.28-2.07-21.05-5.37-31.98L601.84,566.71z"/>
				<path class="st4" d="M511.22,581.83c27.49-8.97,53.33-21.68,77.21-38l15.5-10.59c-5.39-9.65-12.06-18.88-19.46-27.25l-10.97,7.5
					c-23.88,16.31-49.72,29.03-77.21,38l-12.63,4.12c2.12,10.97,5.36,21.89,9.72,32.05L511.22,581.83z"/>
			</g>
		</g>
		<g id="head">
			<circle cx="498.42" cy="456.2" r="64.65"/>
			<circle class="st4" cx="505.56" cy="470.7" r="48.49"/>
		</g>
		<g id="ears_00000071554324710811259270000011825074718819863991_">
			<path id="ears_00000075879588110871160990000006636914710154424730_" d="M386.91,398.34c0.04,2.25,5.5,3.87,8.7,4.82
				c10.91,3.24,17.34,0.19,25.27,0.43c17.65,0.54,27.97,16.95,29.41,15.48c1.58-1.61-9.26-23.01-29.59-28.02
				C404.74,387.12,386.84,394.25,386.91,398.34z"/>
		</g>
	</g>
</g>
<g>
	<path class="st1" d="M404.04,435.99l-234.38-55.24l-27.28,51.02c-4.4,8.24-5.76,17.76-3.84,26.9l47.04,223.87
		c1.92,9.14,7,17.31,14.34,23.08l179.94,141.26c7.35,5.77,16.49,8.76,25.82,8.46l228.64-7.45c3.31-0.11,6.56-0.63,9.69-1.54
		c-61.47-81.15-129.63-184-192.49-308.98C434.14,502.84,418.38,468.98,404.04,435.99z"/>
	<path class="st1" d="M316.69,193.37c-15.4,6.18-30.8,12.36-46.21,18.54c-8.67,3.48-15.83,9.9-20.23,18.13l-68.27,127.67
		l209.79,49.44C359.54,329.71,335.22,257.55,316.69,193.37z"/>
</g>
</svg>
