<svg xmlns="http://www.w3.org/2000/svg" xmlns:xlink="http://www.w3.org/1999/xlink" id="logo" x="0" y="0" version="1.1" viewBox="0 0 1000 1000" style="enable-background:new 0 0 1000 1000" xml:space="preserve"><style type="text/css">.st0{fill:#0d9488}.st1{fill:none}.st2{fill:#042f2e}.st3{fill:#facc15}.st4{fill:#fefce8}</style><g><g id="bg_00000062173320780493342500000001210611199719068292_"><path d="M651.51,887.71l-258.45,8.42c-9.24,0.3-18.29-2.66-25.56-8.37L164.11,728.08c-7.27-5.71-12.3-13.8-14.2-22.84 L96.73,452.17c-1.9-9.05-0.55-18.48,3.81-26.63l121.93-228.03c4.36-8.15,11.45-14.51,20.03-17.95l239.98-96.31 c8.58-3.44,18.1-3.75,26.88-0.88l245.74,80.48c8.79,2.88,16.28,8.76,21.16,16.61l136.52,219.61c4.88,7.85,6.84,17.17,5.53,26.32 l-36.59,255.98c-1.31,9.15-5.8,17.55-12.68,23.72L676.47,877.69C669.59,883.86,660.75,887.41,651.51,887.71z" class="st0"/><path d="M902.5,363.95l-152.1-204.65c-6.21-8.35-15.16-14.25-25.29-16.66L477.06,83.63 c-10.13-2.41-20.78-1.17-30.08,3.49L268.63,176.5l423.9,695.09c6.2-2.36,11.83-6.08,16.45-10.97L884.11,675.3 c7.15-7.57,11.4-17.41,12.02-27.8l15.03-254.54C911.78,382.57,908.71,372.3,902.5,363.95z" class="st1"/><g><path d="M256.59,800.68l109.5,85.96c8.19,6.43,18.38,9.77,28.78,9.43l254.85-8.3c3.68-0.12,7.31-0.71,10.8-1.71 C610.32,819.8,556.13,740.54,503.2,648.14L256.59,800.68z" class="st1"/><path d="M295.68,158.22c-17.17,6.89-34.33,13.78-51.5,20.67c-9.66,3.88-17.65,11.03-22.55,20.21L101.39,423.96 c-4.91,9.18-6.43,19.79-4.29,29.98l52.43,249.53c2.14,10.19,7.8,19.29,15.99,25.72l79.38,62.32l251.39-155.5 c-16.99-30.09-33.83-61.53-50.34-94.35" class="st1"/><g><path d="M503.33,648.38l-246.58,152.3l-11.84-9.28l251.44-155.3c-17.01-30.12-33.86-61.58-50.39-94.44 c-19.36-38.5-36.93-76.23-52.92-113L131.8,367.09l-30.41,56.87c-4.91,9.18-6.43,19.79-4.29,29.98l52.43,249.53 c2.14,10.19,7.8,19.29,15.99,25.72l200.56,157.45c8.19,6.43,18.38,9.77,28.78,9.43l254.85-8.3c3.68-0.12,7.31-0.71,10.8-1.71 C610.37,819.85,556.23,740.68,503.33,648.38z" class="st2"/><path d="M379.37,396.52c-35.93-86.33-63.04-166.76-83.69-238.3c-17.17,6.89-34.33,13.78-51.5,20.67 c-9.66,3.88-17.65,11.03-22.55,20.21l-76.09,142.31L379.37,396.52C379.37,396.52,379.37,396.52,379.37,396.52z" class="st2"/><path d="M393.04,428.66L393.04,428.66" class="st2"/><path d="M379.37,396.52" class="st2"/><rect width="29.12" height="0" x="124.1" y="354.25" class="st2" transform="matrix(0.4715 -0.8818 0.8818 0.4715 -239.1151 309.4884)"/><path d="M506.76,646.26c-2.33-4.07-4.66-8.16-6.99-12.28l-3.42,2.11c2.33,4.12,4.66,8.21,6.99,12.28L506.76,646.26z" class="st0"/></g></g></g><g id="bg_deco"><path d="M67.72,722.83c-9.05,2.72-30.05-43.42-38.06-61.04c-17.51-38.48-26.26-57.72-24.28-81.41 c3.71-44.43,39.78-78.18,45.89-75.01c5.79,3.01-20.8,36.38-12.74,82.31c5.03,28.65,18.37,32.79,27.79,70.71 C73.23,686.26,75.1,720.61,67.72,722.83z" class="st2"/><path d="M105.7,784.83c-7.73,6.46,16.74,67.95,68.43,98.53c36.87,21.81,78.07,22.28,79.72,17.11 c1.77-5.51-43.42-11.06-76.28-51.39c-11.27-13.84-16.61-26.26-35.86-42.88C137.94,802.94,111.43,780.04,105.7,784.83z" class="st2"/><path d="M466.81,972.36c-1.15,3.72,35.83,30.06,81.08,27.46c8.12-0.47,35.23-9.98,89.12-28.98 c19.43-6.85,26.41-9.42,26.1-11.96c-0.68-5.46-35.1-9.44-69.12-1.36c-25.08,5.96-25.88,12.75-48.04,18.13 C502.21,986.25,467.88,968.87,466.81,972.36z" class="st2"/><path d="M725.57,940.69c6.35,8.57,53.72-14.69,85.77-37.57c20.18-14.41,40.12-29.02,52.36-55.88 c13.41-29.42,12.02-61.35,6.46-62.82c-7.28-1.93-13.37,50.5-56.95,78.94c-16.08,10.49-20.75,6.94-39.98,19.64 C744.01,902.29,720.15,933.39,725.57,940.69z" class="st2"/><path d="M897.12,195c-6.89,4.02,5.84,54.21,38.08,92.69c13.59,16.22,19.89,17.53,27.28,32.2 c18.12,36,2.43,72.37,7.69,73.82c5.01,1.38,27.45-29.22,24.46-65c-1.9-22.68-17.24-42.4-47.86-80.9 C920.44,214.7,902.36,191.95,897.12,195z" class="st2"/><path d="M589.15,46.21c2.03,6.69,50.22-14.6,91.87,9.45c7.78,4.49,14.51,10.09,16.77,8.13 c4.11-3.56-6.7-31.86-27.61-42.86C635.55,2.7,587.04,39.22,589.15,46.21z" class="st2"/><path d="M786.91,520.95c-3.23,0.98,7.05,24.26-4.56,44.38c-2.17,3.76-4.87,7.01-3.93,8.1 c1.72,1.98,15.39-3.24,20.7-13.34C807.93,543.36,790.29,519.92,786.91,520.95z" class="st2"/><path d="M491.4,185.97c0.98,3.23,24.26-7.05,44.38,4.56c3.76,2.17,7.01,4.87,8.1,3.93 c1.98-1.72-3.24-15.39-13.34-20.7C513.82,164.95,490.38,182.59,491.4,185.97z" class="st2"/><path d="M46.85,326.75c7.86,0.02,0.48-48.91,33.54-82.41c15.24-15.44,22.71-11.03,41.03-28.31 c29.76-28.08,39.25-67.29,34.83-69.89c-3.11-1.82-11.43,15.45-38.2,38.04c-21.77,18.37-27.4,16.34-45.49,33.12 c-13.27,12.31-27.91,25.88-34.3,47.46C29.35,294.83,40.51,326.74,46.85,326.75z" class="st2"/><g><circle cx="791.77" cy="64.18" r="64.18" class="st2"/><g><path d="M815.98,115.97c5.53,0,10.91-0.65,16.08-1.85c14.56-11.76,23.89-29.76,23.89-49.94 C855.95,28.73,827.22,0,791.77,0c-17.37,0-33.12,6.91-44.67,18.12c-2.41,7.4-3.74,15.31-3.74,23.53 C743.36,82.7,775.87,115.97,815.98,115.97z" class="st3"/></g></g></g><g id="bee"><g><path d="M168.98,562.26c25.21,26.6,96.74,66.8,175.16,58.09c78.56-8.73,163-58.95,158.06-95.24 c-4.92-36.14-98.33-57.56-171.17-50.22C254.7,482.58,140.1,531.79,168.98,562.26z" class="st4"/><path d="M322.1,624.38c-35.15,0-65.7-8.91-86.53-17.21c-33.06-13.17-57.13-30.83-68.63-42.97l0,0 c-5.24-5.53-6.65-12.11-4.08-19.02c11.48-30.88,103.45-66.6,167.89-73.09c74.65-7.52,169.02,14.28,174.24,52.64 c1.2,8.83-2.2,18.45-10.11,28.59c-25.44,32.61-91.52,63.29-150.43,69.83C336.83,624,329.36,624.38,322.1,624.38z M171.02,560.33 c27.21,28.71,98.82,65.44,172.8,57.23c57.59-6.4,121.99-36.14,146.62-67.7c6.94-8.9,9.96-17.09,8.97-24.37 c-2.1-15.41-23.26-29.65-58.06-39.08c-33.38-9.04-74.52-12.3-110.04-8.72c-30.88,3.11-68.96,13.16-101.85,26.87 c-33.71,14.05-56.64,29.97-61.33,42.58C166.31,552.04,167.26,556.36,171.02,560.33L171.02,560.33z"/></g><g><path d="M777.53,262.79c5.7,36.2-6.08,117.4-60.83,174.22c-54.84,56.92-146.15,93.19-171.89,67.13 c-25.64-25.95,14.38-113.03,64.64-166.26C662.1,282.09,771,221.31,777.53,262.79z" class="st4"/><path d="M571.14,515.55c-12.62,0-22.15-3.17-28.34-9.43c-27.21-27.54,13.09-115.61,64.59-170.17 c44.46-47.1,128.87-98.18,160.34-88.44c7.05,2.18,11.4,7.31,12.58,14.84l0,0c2.6,16.52,1.91,46.36-7.82,80.59 c-7.4,26.03-22.74,63.82-53.77,96.03c-41.13,42.69-105.75,76.33-147.11,76.59C571.45,515.55,571.3,515.55,571.14,515.55z M758.72,251.92c-14.32,0-37.28,8.4-63.81,23.58c-30.93,17.7-62.12,41.74-83.42,64.31c-24.5,25.96-47.02,60.54-60.22,92.51 c-13.77,33.32-15.39,58.78-4.46,69.84c5.09,5.15,13.27,7.76,24.33,7.76c0.15,0,0.3,0,0.45,0 c40.03-0.25,102.88-33.14,143.09-74.87c51.65-53.61,66.23-132.75,60.08-171.83l0,0c-0.85-5.41-3.69-8.79-8.69-10.33 C763.97,252.24,761.51,251.92,758.72,251.92z"/></g><g id="ears_00000101783701917942496120000011021846856656249477_"><path id="ears_00000141451830548474345020000009780082422666154685_" d="M516.84,313.6c1.96,1.56-0.32,7.49-1.65,10.96 c-4.56,11.84-11.63,15.44-16.81,22.61c-11.52,15.95-4.05,36.23-6.33,36.5c-2.5,0.29-14.03-23.83-4.63-45.19 C494.8,321.72,513.27,310.76,516.84,313.6z"/></g><g id="inside_wings"><g><g><path d="M385.06,524.89c26.53-22.04,55.56-24.87,68.83-24.9c3.95-0.01,6.44,2.9,5.83,6.8 c-2.06,13.1-9.3,41.36-35.13,64.21c-25.4,22.46-65.23,36.57-75.43,24.67C338.95,583.77,358.98,546.56,385.06,524.89z" class="st4"/><path d="M384.08,523.71c18.85-15.3,42.69-23.74,66.85-24.54c0,0,2.58-0.05,2.58-0.05c5.87-0.16,8.2,4.63,6.74,9.9 c-0.89,5.09-2.14,10.12-3.74,15.03c-10.57,33.66-37.3,59.25-69.7,72.25c-22.87,9.43-51.83,10.92-39.83-23.09 C354.64,553.74,368.17,537.03,384.08,523.71L384.08,523.71z M386.04,526.07c-15.05,13.19-27.86,29.83-34.87,48.63 c-2.1,6.47-5.08,16.34,1.43,21.01c9.09,4.94,23.46,0.21,32.76-3.17c25.02-9.7,47.83-26.85,61.04-50.6 c4.94-8.85,8.69-18.4,11.02-28.28c0.63-4.03,3.75-10.62-1.63-12.52c-1.18-0.43-3.49-0.23-4.79-0.23 C427.32,501.67,404.04,510.78,386.04,526.07L386.04,526.07z"/></g><g><path d="M370.38,501.29c32.55-11.4,55.91-13.75,68.36-9.15c3.7,1.37,5.03,4.96,3.09,8.41 c-6.5,11.56-23.14,35.52-55.32,47.93c-31.63,12.2-104.73,24.16-118.04,15.88C237.73,545.23,338.38,512.49,370.38,501.29z" class="st4"/><path d="M369.82,499.69c8.13-2.74,16.38-5.14,24.79-6.92c12.55-2.58,25.59-4.6,38.37-2.54c4.03,0.78,9.85,1.76,10.11,6.86 c0.16,2.3-1.27,4.2-2.32,6.09c-1.1,1.84-2.26,3.64-3.45,5.42c-12.05,17.76-29.29,31.95-49.16,40.12 c-23.99,9.32-49.41,14.3-74.79,18.08c-8.5,1.16-17.04,2.05-25.7,2.29c-6.7-0.05-13.59,0.4-20-2.65 c-4.53-2.42-8.5-7.48-6.79-12.82C267.69,531.8,347.06,507.92,369.82,499.69L369.82,499.69z M370.94,502.88 c-21.49,8-98.6,32.61-105.8,51.94c-1.38,5.31,5.46,8.79,10.09,9.37c12.39,1.81,25.21,0.43,37.7-0.83 c16.88-1.95,33.68-4.91,50.2-8.9c32.62-7.08,59.27-22.66,76.92-51.69c1-1.77,2.39-3.51,2.27-5.63 c-0.02-2.03-1.52-3.77-3.39-4.5c-5.96-2.2-12.46-2.4-18.75-2.02C403.22,491.93,386.89,497.23,370.94,502.88L370.94,502.88z"/></g></g><g><g><path d="M603.51,417.39c-33.64,7.58-53.6,28.86-61.72,39.34c-2.42,3.12-1.63,6.87,1.83,8.77 c11.64,6.36,38.45,17.86,72.31,11.33c33.29-6.42,68.77-29.38,65.56-44.72C678.29,416.77,636.58,409.94,603.51,417.39z" class="st4"/><path d="M603.8,418.66c-23.16,4.91-44.77,17.69-59.83,36.07c0,0-1.6,1.99-1.6,1.99c-2.31,2.53-1.96,6.41,1.11,8.14 c5.19,2.85,10.71,5.18,16.31,7.11c32.27,11.58,68.55,4.75,97.18-13.01c5.71-3.5,11.17-7.5,15.72-12.21 c7.15-7.46,10.58-15.8-0.14-21.9C653.6,414.57,624.66,414.48,603.8,418.66L603.8,418.66z M603.22,416.12 c20.24-4.5,41.69-5.18,61.79,0.6c18.42,5.75,25.93,17.64,10.71,32.95c-10.05,9.89-22.52,16.5-35.45,21.61 c-25.64,10.39-54.88,11.4-80.89,1.86c-4.85-1.74-9.57-3.81-14.13-6.22c-4.73-1.94-7.17-6.34-3.58-10.74c0,0,1.6-2.01,1.6-2.01 C558.6,435.59,579.71,421.73,603.22,416.12L603.22,416.12z"/></g><g><path d="M593.76,391.36c-28.89,18.83-45,35.92-48.96,48.58c-1.18,3.77,0.87,7.01,4.77,7.58 c13.13,1.9,42.26,3.34,71.72-14.59c28.96-17.63,83.03-68.25,84.6-83.84C709.51,313.06,622.16,372.84,593.76,391.36z" class="st4"/><path d="M594.23,392.09c-14.28,9.17-28.3,19.2-39.55,32.01c-3.45,4.03-6.52,8.43-8.65,13.29c-1.24,2.7-2.24,6.39,0.48,8.51 c1.63,1.4,3.87,1.35,5.9,1.64c2.12,0.22,4.24,0.38,6.36,0.49c21.18,1.03,42.73-4.2,60.75-15.3 c21.47-13.66,40.38-31.2,58.3-49.18c8.66-9.07,17.63-18.33,23.81-29.21c1.97-3.35,2.71-7.09,1.66-10.53 c-2.44-6.99-14.81-2.74-20.12-1.09C651.38,354.66,622.9,374.08,594.23,392.09L594.23,392.09z M593.28,390.63 c20.61-13.23,86.89-62.1,108.77-54.11c5.27,1.92,6.88,8.14,5.98,13.21c-2.4,11.61-19.06,27.93-27.41,36.59 c-18.44,17.87-37.96,34.93-60.03,48.2c-18.65,10.71-40.43,15.65-61.86,14.29c-2.14-0.15-4.27-0.34-6.39-0.6 c-2.12-0.32-4.49-0.35-6.19-1.87c-3.82-3.3-1.03-8.45,0.79-12.06c6.27-11.27,15.93-20.18,25.71-28.4 C579.25,400.43,586.18,395.39,593.28,390.63L593.28,390.63z"/></g></g></g><g id="body_00000072969753152341075380000001384290947776241064_"><g><path id="body_00000121255617124925875640000013626923203068155309_" d="M615.09,546.56c24.82,53.19,8.7,106.43-1.22,130.45 c-2.95,7.15-10.75,10.99-18.22,8.97c-25.09-6.8-77.11-26.5-104.11-78.62C465,556.12,466.32,480.69,498.21,465 C530.1,449.3,590.68,494.27,615.09,546.56z"/><path d="M599.64,690.28c-1.65,0-3.32-0.22-4.98-0.66c-28.13-7.62-79.37-28.21-106.47-80.52 c-18.67-36.03-24.44-85.8-13.74-118.35c4.69-14.25,12.33-24.32,22.09-29.12c9.77-4.81,22.41-4.72,36.56,0.26 c32.32,11.37,68.23,46.32,85.39,83.09c24.92,53.39,9.97,106.55-1.15,133.48C614.34,685.74,607.22,690.28,599.64,690.28z M512.86,465.6c-4.86,0-9.23,0.92-12.99,2.77c-7.91,3.89-14.23,12.44-18.27,24.72c-10.13,30.8-4.55,78.13,13.27,112.53 c25.78,49.75,74.81,69.42,101.75,76.72c5.62,1.52,11.53-1.39,13.76-6.77c10.65-25.79,24.99-76.65,1.29-127.42l0,0 c-16.39-35.11-50.48-68.41-81.07-79.17C524.2,466.73,518.23,465.6,512.86,465.6z"/></g><g id="yellow"><path d="M626.98,613.18c-25.91,19.61-54.71,33.78-86.06,42.35l-6.12,1.67c22.58,16.5,46.26,24.83,60.84,28.78 c7.47,2.02,15.27-1.81,18.22-8.97c5.7-13.79,13.42-37.21,14.28-64.72L626.98,613.18z" class="st3"/><path d="M607.88,574.35c-26.85,17.71-55.65,31.88-86.06,42.35l-20.3,6.99c7.34,10.36,15.69,19.14,24.43,26.54 l10.58-3.64c30.41-10.47,59.21-24.65,86.06-42.35l5.51-3.63c-0.49-11.46-2.3-23.46-5.99-35.64L607.88,574.35z" class="st3"/><path d="M506.87,591.21c30.64-10,59.44-24.17,86.06-42.35l17.28-11.8c-6.01-10.76-13.44-21.05-21.69-30.38 l-12.23,8.36c-26.62,18.18-55.42,32.36-86.06,42.35l-14.08,4.59c2.36,12.23,5.98,24.39,10.83,35.72L506.87,591.21z" class="st3"/></g></g><g id="head"><circle cx="492.61" cy="451.17" r="72.06"/><circle cx="500.56" cy="467.34" r="54.04" class="st3"/></g><g id="ears_00000071554324710811259270000011825074718819863991_"><path id="ears_00000075879588110871160990000006636914710154424730_" d="M368.32,386.69c0.04,2.51,6.13,4.32,9.69,5.38 c12.16,3.61,19.33,0.21,28.17,0.48c19.67,0.6,31.18,18.89,32.78,17.25c1.76-1.8-10.32-25.65-32.98-31.23 C388.19,374.18,368.24,382.13,368.32,386.69z"/></g></g></g><g><path d="M393.04,428.66L131.8,367.09l-30.41,56.87c-4.91,9.18-6.43,19.79-4.29,29.98l52.43,249.53 c2.14,10.19,7.8,19.29,15.99,25.72l200.56,157.45c8.19,6.43,18.38,9.77,28.78,9.43l254.85-8.3c3.68-0.12,7.31-0.71,10.8-1.71 C592,795.6,516.02,680.96,445.96,541.66C426.59,503.16,409.02,465.43,393.04,428.66z" class="st1"/><path d="M295.68,158.22c-17.17,6.89-34.33,13.78-51.5,20.67c-9.66,3.88-17.65,11.03-22.55,20.21l-76.09,142.31 l233.84,55.11C343.44,310.19,316.33,229.76,295.68,158.22z" class="st1"/></g></svg>