<?xml version="1.0" standalone="no"?>
<!DOCTYPE svg PUBLIC "-//W3C//DTD SVG 20010904//EN"
 "http://www.w3.org/TR/2001/REC-SVG-20010904/DTD/svg10.dtd">
<svg version="1.0" xmlns="http://www.w3.org/2000/svg"
 width="4167.000000pt" height="4167.000000pt" viewBox="0 0 4167.000000 4167.000000"
 preserveAspectRatio="xMidYMid meet">
<metadata>
Created by potrace 1.14, written by Peter Selinger 2001-2017
</metadata>
<g transform="translate(0.000000,4167.000000) scale(0.100000,-0.100000)"
fill="#000000" stroke="none">
<path d="M32770 41667 c-3 -3 -36 -7 -75 -10 -130 -12 -330 -53 -479 -98 -927
-285 -1614 -1024 -1836 -1974 -17 -77 -24 -109 -35 -192 -3 -21 -7 -47 -10
-58 -8 -42 -19 -234 -19 -345 1 -627 220 -1230 622 -1710 233 -279 520 -506
848 -673 97 -49 290 -131 334 -142 8 -2 42 -12 75 -23 102 -34 276 -74 375
-88 25 -3 47 -8 50 -9 3 -2 46 -7 95 -12 164 -15 563 -8 635 12 8 2 38 6 65
10 253 31 663 174 895 313 19 12 49 29 65 38 17 9 69 43 116 75 601 403 1024
1060 1139 1769 7 41 14 84 16 94 10 57 19 209 19 346 0 140 -11 345 -19 360
-2 3 -7 29 -10 59 -18 151 -104 456 -176 622 -50 115 -136 283 -191 370 -82
132 -143 215 -259 354 -14 16 -75 79 -135 140 -390 390 -899 651 -1440 740
-55 9 -111 19 -125 22 -32 6 -534 16 -540 10z"/>
<path d="M26869 41006 c-2 -2 -38 -6 -79 -10 -240 -19 -646 -120 -860 -213 -8
-3 -17 -7 -20 -7 -49 -11 -376 -169 -520 -251 -74 -42 -287 -176 -315 -198 -5
-4 -41 -31 -80 -59 -132 -97 -293 -245 -371 -340 -71 -86 -95 -168 -60 -207
31 -34 94 -40 266 -27 94 8 97 8 255 31 133 19 156 22 220 30 28 3 61 8 75 10
14 3 48 7 75 10 28 3 84 10 125 16 156 19 240 27 515 44 62 4 484 4 545 1 117
-8 237 -18 260 -21 14 -2 63 -9 110 -15 47 -5 96 -12 110 -15 13 -3 42 -7 65
-11 137 -20 440 -98 590 -151 257 -91 495 -205 729 -352 71 -45 132 -81 137
-81 4 0 9 -4 11 -8 2 -5 50 -37 108 -72 217 -131 301 -147 336 -64 49 118 -33
421 -199 734 -48 92 -57 106 -152 248 -184 278 -413 511 -666 680 -84 56 -267
150 -344 177 -27 9 -59 21 -70 26 -54 23 -212 59 -376 84 -41 7 -414 16 -420
11z"/>
<path d="M20569 38316 c-2 -2 -35 -7 -74 -11 -132 -13 -403 -97 -600 -185 -11
-5 -81 -34 -155 -63 -74 -30 -144 -57 -155 -62 -11 -5 -22 -9 -25 -10 -3 -1
-16 -6 -30 -12 -33 -14 -555 -223 -920 -369 -157 -63 -294 -119 -305 -124 -11
-5 -51 -21 -90 -35 -38 -14 -83 -32 -100 -40 -16 -7 -88 -36 -160 -64 -71 -29
-139 -56 -150 -61 -11 -5 -45 -19 -75 -30 -30 -11 -64 -25 -75 -30 -11 -5
-168 -68 -350 -140 -181 -73 -343 -138 -359 -146 -16 -8 -33 -14 -39 -14 -5 0
-23 -7 -40 -15 -18 -8 -117 -48 -222 -90 -104 -42 -199 -80 -210 -85 -11 -5
-146 -59 -300 -120 -154 -61 -291 -116 -305 -122 -14 -6 -27 -12 -30 -13 -3
-1 -14 -5 -25 -10 -66 -27 -396 -160 -429 -171 -40 -15 -148 -59 -181 -74 -19
-9 -742 -297 -1175 -470 -113 -45 -236 -94 -275 -110 -105 -44 -518 -211 -530
-214 -5 -2 -21 -8 -35 -13 -14 -6 -151 -61 -305 -123 -154 -61 -289 -115 -300
-120 -11 -5 -76 -31 -145 -58 -69 -28 -294 -117 -500 -200 -206 -83 -528 -211
-715 -286 -187 -75 -349 -140 -360 -146 -11 -5 -58 -24 -105 -41 -47 -18 -89
-36 -94 -41 -6 -4 -16 -8 -23 -8 -7 0 -32 -9 -56 -19 -23 -11 -145 -61 -272
-111 -308 -123 -446 -198 -595 -320 -147 -120 -262 -254 -376 -435 -21 -34
-20 -32 -166 -305 -61 -113 -127 -236 -148 -275 -86 -160 -279 -521 -358 -670
-46 -88 -97 -182 -112 -210 -15 -27 -46 -84 -68 -125 -56 -106 -507 -951 -552
-1035 -146 -271 -255 -476 -305 -570 -32 -60 -61 -114 -65 -120 -4 -5 -40 -73
-80 -150 -40 -77 -76 -144 -80 -150 -4 -5 -34 -62 -67 -125 -52 -98 -260 -488
-394 -737 -44 -83 -69 -129 -234 -438 -65 -121 -132 -247 -150 -280 -94 -175
-126 -235 -152 -285 -17 -30 -51 -95 -78 -145 -26 -49 -64 -121 -85 -160 -21
-38 -56 -104 -78 -145 -22 -41 -71 -133 -110 -205 -38 -71 -95 -179 -127 -240
-32 -60 -76 -141 -97 -178 -21 -38 -38 -70 -38 -73 0 -2 -26 -52 -58 -111 -77
-141 -134 -247 -190 -352 -24 -48 -75 -142 -112 -211 -37 -69 -120 -223 -184
-342 -157 -295 -340 -638 -386 -723 -147 -276 -207 -388 -235 -440 -181 -335
-432 -810 -452 -854 -48 -107 -101 -274 -118 -370 -3 -19 -7 -37 -9 -40 -16
-28 -25 -325 -13 -448 10 -97 -13 17 243 -1203 19 -91 39 -184 44 -206 5 -23
18 -86 29 -140 11 -55 38 -184 60 -289 22 -104 67 -320 100 -480 34 -159 68
-319 75 -355 8 -36 38 -175 66 -310 28 -135 87 -416 131 -625 44 -209 83 -391
85 -405 5 -23 288 -1371 370 -1760 19 -91 39 -185 44 -210 5 -25 18 -88 30
-140 11 -52 34 -162 51 -245 16 -82 34 -166 39 -185 5 -19 12 -48 14 -65 3
-16 20 -95 37 -175 16 -80 36 -176 44 -215 8 -38 23 -110 34 -160 11 -49 23
-106 26 -125 3 -19 21 -105 40 -190 18 -85 38 -180 44 -210 6 -30 19 -95 30
-145 11 -49 40 -189 66 -310 25 -121 61 -294 81 -385 19 -91 36 -174 38 -185
16 -79 383 -1819 407 -1930 40 -184 87 -323 154 -456 134 -268 261 -408 635
-703 135 -106 614 -482 1065 -836 451 -354 943 -741 1093 -859 151 -119 298
-234 327 -256 29 -22 251 -195 491 -385 241 -190 450 -354 465 -365 15 -11
390 -306 834 -655 444 -349 842 -662 885 -695 43 -33 232 -181 420 -330 188
-148 354 -279 369 -290 14 -11 292 -228 616 -483 656 -515 623 -488 754 -593
53 -41 287 -225 521 -408 234 -183 434 -340 445 -350 104 -87 337 -212 495
-265 207 -69 284 -80 575 -80 143 -1 359 3 480 7 295 11 425 15 645 22 318 10
460 14 620 20 246 9 521 18 930 30 85 3 218 7 295 10 77 2 219 7 315 10 96 3
234 8 305 10 72 3 213 7 315 10 102 3 237 7 300 10 63 3 196 7 295 10 99 3
239 7 310 10 72 3 211 7 310 10 99 3 234 8 300 10 66 2 201 7 300 10 99 3 243
7 320 10 77 3 221 7 320 10 99 3 230 8 290 10 61 2 196 7 300 10 105 3 251 7
325 10 74 3 212 7 305 10 94 3 229 8 300 10 72 3 211 7 310 10 99 3 239 7 310
10 72 3 207 7 300 10 94 3 233 8 310 10 77 3 214 7 305 10 91 3 230 7 310 10
80 2 224 7 320 10 96 3 229 7 295 10 66 3 201 7 300 10 185 6 355 24 460 49
167 40 392 139 534 235 61 42 208 161 266 217 17 16 69 63 115 104 47 41 101
89 120 107 19 18 47 42 61 55 101 91 180 161 197 176 51 45 168 149 186 167
12 11 79 72 151 135 71 63 136 122 145 130 9 8 51 47 94 85 43 39 93 83 110
98 17 16 58 52 90 80 32 29 69 61 80 72 25 24 184 167 240 216 22 19 51 45 65
58 14 12 57 51 95 85 38 33 81 72 96 86 44 40 191 173 214 193 42 37 132 116
151 134 11 10 61 54 110 98 50 44 92 83 95 86 5 5 43 40 195 174 43 39 95 86
116 105 20 19 52 48 71 64 71 63 194 172 214 191 11 11 56 52 99 90 113 100
188 167 201 179 6 6 39 36 74 66 34 30 72 64 84 75 12 11 60 54 106 95 46 41
106 96 134 121 58 52 232 208 356 319 126 112 187 167 279 250 45 41 91 81
101 90 10 9 56 49 101 90 46 41 108 98 139 125 31 28 94 84 140 126 94 84 114
102 345 309 88 78 198 177 244 219 47 42 96 86 110 99 14 12 40 35 56 50 105
94 151 135 221 197 43 39 101 91 129 116 27 25 68 61 89 80 21 19 44 39 50 44
11 11 260 233 401 359 76 68 160 144 195 176 24 22 152 136 176 157 12 10 61
54 110 98 48 44 113 103 144 130 31 28 96 86 145 130 48 44 106 96 128 115 23
19 53 46 67 60 15 14 62 57 106 95 89 79 177 158 184 165 3 3 43 38 90 79 95
83 320 309 320 321 0 5 6 15 14 23 32 31 129 191 170 279 78 166 128 334 151
508 3 25 8 56 10 70 2 14 7 45 10 70 3 25 10 72 15 105 5 33 12 80 15 105 3
25 8 56 10 70 2 14 11 77 20 140 17 119 19 133 30 213 4 27 8 57 10 66 2 10 6
42 10 71 4 29 8 61 10 70 2 9 6 41 10 71 7 59 13 100 20 139 2 14 7 43 9 65 3
22 13 90 21 150 9 61 18 124 21 140 2 17 10 75 19 130 22 149 23 163 35 251 6
44 12 90 14 101 3 11 7 44 11 74 3 30 8 65 10 79 6 33 12 75 20 130 3 25 8 56
10 70 2 14 9 61 15 106 6 44 12 89 14 100 2 10 7 42 10 69 8 55 13 91 26 180
5 33 12 83 15 110 3 28 8 59 10 71 3 11 7 40 10 65 3 24 7 55 10 69 3 14 8 50
11 80 3 30 7 62 9 70 2 8 7 38 11 65 3 28 8 57 9 66 2 9 6 40 10 69 4 29 8 62
11 73 2 10 6 45 10 76 3 31 8 58 9 61 2 3 6 37 10 75 4 39 9 72 10 75 2 3 6
29 10 59 4 30 8 63 11 74 2 10 6 45 9 76 4 31 8 63 10 71 2 8 7 35 10 60 3 25
8 56 10 70 2 14 7 45 10 70 3 25 10 72 15 105 5 33 12 80 15 105 3 25 8 56 10
70 2 14 9 61 15 106 6 44 12 89 14 100 6 29 15 94 21 144 3 25 8 56 10 70 4
26 10 63 21 145 3 28 8 57 9 66 2 9 6 40 10 69 4 29 8 62 11 73 2 11 8 57 14
101 6 45 13 92 15 106 2 14 6 45 10 70 3 25 8 56 10 70 2 14 7 45 10 70 4 25
8 56 10 70 2 14 7 45 10 70 3 25 8 56 10 70 2 14 6 45 10 70 3 25 8 56 10 70
5 27 13 83 20 146 3 22 9 64 15 94 5 30 12 78 15 105 8 64 21 155 30 205 2 14
7 48 10 75 13 102 15 121 25 175 5 30 11 78 15 105 3 28 7 61 10 75 2 14 7 43
10 65 3 22 7 54 10 70 6 39 14 95 21 153 3 26 7 56 9 67 7 43 25 172 31 210 3
22 7 51 9 65 2 14 7 45 10 70 3 25 8 56 10 70 3 14 7 48 10 75 3 28 10 73 15
100 5 28 12 73 15 100 3 28 8 57 10 65 2 8 6 40 10 71 3 31 7 66 9 76 3 11 7
44 11 74 3 30 8 61 10 69 2 8 6 38 10 65 3 28 8 57 10 65 2 8 6 40 10 71 3 31
7 65 9 75 2 11 7 44 11 74 4 30 9 62 10 71 2 9 6 40 10 69 4 29 8 60 10 69 1
9 6 41 10 71 4 30 9 62 10 70 2 8 6 38 9 65 4 28 8 61 11 75 2 14 7 43 10 65
3 22 7 51 10 65 2 14 7 48 10 75 13 102 15 121 25 175 5 30 12 79 15 109 4 30
8 61 10 70 1 9 6 39 9 66 4 28 9 57 11 65 2 8 6 40 10 71 3 31 7 66 9 76 3 11
7 44 11 73 4 29 8 60 10 69 1 9 6 39 9 66 4 28 10 66 13 85 3 19 6 44 8 55 1
11 6 47 11 80 10 71 12 347 2 425 -19 163 -81 368 -156 520 -39 77 -198 342
-307 510 -12 19 -81 130 -152 245 -230 371 -464 749 -497 800 -18 28 -43 68
-56 90 -13 22 -38 63 -56 90 -17 28 -83 133 -146 235 -63 102 -177 284 -252
405 -76 121 -143 229 -149 239 -7 11 -36 57 -64 103 -29 45 -53 85 -53 89 0 3
-11 20 -25 38 -14 18 -25 36 -25 40 0 4 -5 12 -10 19 -10 11 -94 146 -288 460
-37 60 -86 138 -110 175 -24 37 -45 75 -49 85 -3 9 -9 17 -14 17 -5 0 -9 4 -9
9 0 5 -61 107 -136 228 -75 120 -155 247 -177 283 -22 36 -55 88 -72 115 -77
120 -135 217 -135 225 0 5 -4 10 -8 12 -5 2 -23 28 -41 58 -17 30 -61 100 -97
155 -35 55 -67 107 -72 116 -4 8 -43 72 -87 142 -44 71 -89 143 -100 161 -11
18 -69 111 -128 207 -148 238 -195 313 -385 619 -90 146 -172 276 -181 290
-10 14 -20 32 -24 40 -4 8 -25 42 -47 75 -21 33 -55 87 -75 120 -19 33 -52 87
-73 120 -21 33 -150 240 -287 460 -136 220 -269 433 -294 472 -25 40 -51 81
-56 90 -6 10 -22 36 -36 58 -51 82 -415 666 -430 693 -9 15 -65 106 -126 202
-60 96 -176 283 -258 415 -157 255 -228 366 -250 393 -47 60 -129 154 -168
194 -162 165 -419 321 -647 394 -30 9 -64 21 -75 25 -19 8 -244 82 -255 84 -5
1 -405 132 -860 282 -107 35 -202 66 -210 68 -8 2 -116 37 -240 78 -401 133
-1005 331 -1015 333 -5 1 -77 25 -160 52 -82 27 -359 118 -615 202 -256 83
-523 171 -595 195 -71 23 -240 79 -375 123 -283 93 -1252 410 -1480 484 -85
28 -247 81 -360 118 -113 38 -401 132 -640 210 -239 78 -487 159 -550 180 -63
21 -338 111 -610 200 -272 89 -632 207 -800 262 -168 55 -348 113 -400 130
-52 17 -104 34 -115 39 -11 4 -202 67 -425 139 -223 72 -423 137 -445 145 -58
19 -142 42 -205 54 -30 6 -68 13 -85 17 -33 6 -370 16 -376 10z"/>
<path d="M6433 35561 c-49 -36 -99 -91 -263 -286 -383 -457 -679 -769 -1010
-1065 -63 -57 -131 -117 -150 -134 -50 -45 -253 -212 -335 -276 -38 -30 -74
-59 -80 -63 -94 -76 -369 -263 -580 -392 -475 -291 -689 -446 -941 -680 -6 -5
-62 -57 -125 -115 -129 -119 -514 -502 -574 -571 -106 -120 -146 -169 -219
-263 -467 -600 -699 -1276 -700 -2046 0 -140 10 -374 18 -415 2 -11 7 -49 11
-85 4 -36 9 -74 11 -85 2 -10 6 -35 9 -55 12 -81 34 -184 62 -295 51 -200 137
-418 211 -534 43 -66 117 -141 143 -142 10 -1 25 -2 32 -3 23 -4 65 27 86 63
33 60 80 257 106 451 3 25 8 52 10 60 2 8 6 38 10 65 6 53 10 77 25 165 5 30
12 69 14 85 20 123 45 259 55 305 5 25 12 60 16 77 33 191 204 783 236 818 5
5 9 15 9 23 0 20 112 278 173 397 75 147 222 395 279 470 4 6 40 53 80 105
151 200 370 431 533 561 72 58 258 189 268 189 4 0 29 14 57 30 29 17 146 78
260 135 317 160 449 242 668 418 123 99 395 360 504 483 29 33 67 76 83 95 26
28 120 146 216 269 69 88 211 303 316 475 89 146 283 521 283 546 0 7 6 20 13
28 7 9 28 54 46 101 19 47 40 99 47 115 34 80 123 352 149 455 48 189 69 375
52 465 -15 86 -50 103 -114 56z"/>
<path d="M37382 33548 c-12 -6 -34 -36 -49 -66 -26 -53 -27 -62 -26 -201 1
-137 26 -348 53 -436 5 -16 12 -46 15 -65 8 -47 49 -202 86 -325 113 -373 269
-763 460 -1150 87 -177 119 -238 221 -425 43 -77 209 -352 249 -412 22 -31 39
-61 39 -67 0 -5 3 -11 8 -13 4 -1 45 -59 91 -128 156 -231 388 -531 563 -725
14 -16 41 -46 58 -65 17 -19 170 -174 339 -345 319 -322 410 -429 515 -607 54
-94 140 -259 171 -333 9 -22 21 -49 26 -60 12 -27 32 -79 33 -85 1 -3 4 -9 7
-15 22 -35 129 -406 153 -525 2 -14 9 -48 15 -77 6 -29 13 -74 16 -100 4 -26
8 -55 10 -63 3 -8 7 -42 11 -74 3 -33 7 -68 10 -79 23 -123 23 -790 0 -937 -3
-14 -7 -61 -11 -104 -4 -43 -8 -86 -10 -95 -1 -9 -6 -45 -10 -81 -3 -36 -8
-78 -10 -95 -3 -16 -7 -54 -10 -83 -4 -29 -8 -61 -10 -71 -13 -67 -20 -211
-16 -307 2 -46 35 -77 74 -68 55 11 85 32 175 123 233 235 480 680 632 1140
68 206 134 478 155 636 3 28 8 64 11 80 32 213 37 627 8 825 -46 326 -125 572
-288 900 -178 357 -399 694 -854 1301 -163 216 -610 786 -1172 1489 -264 332
-364 456 -369 460 -4 3 -22 25 -41 50 -19 25 -55 70 -80 100 -26 30 -113 136
-195 234 -81 98 -155 186 -164 195 -9 10 -38 44 -66 76 -27 33 -54 65 -60 71
-5 6 -48 53 -95 105 -113 125 -324 333 -397 390 -119 94 -217 133 -271 107z"/>
<path d="M2019 20606 c-184 -66 -495 -338 -774 -677 -91 -112 -296 -399 -350
-491 -5 -10 -33 -57 -62 -105 -234 -401 -399 -798 -503 -1212 -21 -86 -41
-173 -44 -195 -4 -21 -8 -41 -10 -45 -2 -3 -7 -31 -11 -61 -4 -30 -8 -57 -10
-60 -2 -3 -6 -34 -10 -70 -3 -36 -8 -72 -10 -80 -25 -99 -25 -659 0 -790 3
-13 7 -42 10 -65 10 -71 25 -159 35 -205 6 -25 12 -54 14 -65 31 -164 171
-602 289 -902 134 -340 360 -853 742 -1688 232 -505 542 -1135 675 -1370 15
-27 38 -67 49 -87 105 -189 107 -192 219 -368 196 -307 389 -509 497 -520 53
-6 76 2 109 35 68 68 111 210 133 435 15 150 8 632 -12 840 -8 84 -16 158 -20
190 -2 19 -7 60 -10 90 -4 30 -8 66 -10 80 -2 14 -9 61 -15 105 -16 111 -33
219 -66 410 -3 17 -19 93 -35 170 -17 77 -32 151 -35 165 -3 14 -10 43 -15 65
-5 22 -12 51 -15 65 -14 66 -72 276 -121 435 -108 355 -281 758 -472 1103 -26
48 -70 128 -96 177 -26 50 -51 95 -55 100 -15 19 -159 311 -200 405 -99 225
-190 549 -236 840 -12 75 -13 87 -20 135 -33 253 -38 786 -9 975 4 25 10 78
21 168 4 41 23 153 38 232 3 14 10 52 16 85 49 260 223 826 334 1090 7 17 28
68 46 115 18 47 38 99 45 115 41 95 97 279 102 332 8 85 -10 113 -70 113 -23
-1 -58 -7 -78 -14z"/>
<path d="M4429 8982 c-20 -10 -43 -34 -58 -61 -21 -39 -24 -57 -24 -145 1
-184 52 -391 176 -716 68 -177 251 -559 327 -680 5 -8 24 -41 42 -73 39 -68
40 -70 98 -165 25 -40 50 -81 55 -90 41 -69 315 -463 335 -482 3 -3 25 -32 50
-65 24 -33 52 -69 61 -80 9 -11 54 -65 100 -120 46 -55 86 -102 89 -105 3 -3
18 -21 34 -40 102 -125 363 -390 596 -604 127 -118 425 -352 605 -478 58 -40
354 -228 360 -228 2 0 39 -21 82 -46 90 -54 373 -196 483 -244 41 -18 93 -40
115 -50 133 -60 595 -225 700 -251 17 -4 109 -27 205 -52 96 -25 189 -48 205
-51 17 -2 62 -11 100 -19 39 -9 84 -17 100 -20 17 -3 57 -10 90 -15 107 -19
148 -25 255 -36 30 -4 69 -8 85 -11 60 -8 243 -18 350 -18 273 -1 453 29 513
85 66 63 -4 119 -299 243 -74 31 -143 60 -154 65 -11 5 -60 26 -110 46 -423
171 -930 424 -1204 601 -177 114 -463 312 -481 333 -3 3 -25 21 -50 40 -54 42
-63 49 -160 131 -128 108 -150 129 -330 309 -159 159 -245 251 -326 350 -16
19 -31 37 -34 40 -3 3 -21 25 -40 50 -19 25 -37 47 -40 50 -7 7 -164 218 -220
298 -105 146 -120 167 -127 177 -4 6 -21 30 -37 55 -81 125 -323 438 -459 595
-432 495 -1254 1168 -1712 1400 -169 85 -280 110 -346 77z"/>
<path d="M36195 8972 c-61 -38 -131 -170 -290 -547 -53 -126 -105 -248 -115
-270 -10 -22 -51 -112 -91 -200 -187 -412 -411 -805 -633 -1110 -36 -49 -69
-94 -73 -100 -4 -5 -42 -53 -83 -105 -41 -52 -91 -113 -110 -134 -115 -128
-154 -170 -240 -256 -83 -83 -212 -202 -275 -253 -122 -100 -225 -178 -295
-225 -47 -31 -87 -59 -90 -62 -4 -5 -121 -78 -205 -127 -35 -20 -258 -131
-300 -148 -22 -9 -123 -47 -225 -85 -312 -114 -569 -228 -680 -301 -14 -9 -59
-36 -100 -60 -258 -151 -676 -463 -950 -709 -153 -138 -290 -272 -465 -454
-95 -98 -242 -272 -378 -446 -152 -193 -316 -472 -366 -622 -25 -74 -36 -172
-27 -224 10 -51 57 -99 117 -118 47 -16 183 -23 234 -12 11 2 40 7 65 11 25 3
59 10 75 15 17 5 44 11 60 14 17 2 68 16 115 31 47 14 92 28 100 30 75 21 311
113 510 198 348 150 871 420 1270 656 80 47 154 91 165 97 24 12 164 99 270
166 42 27 503 333 539 358 12 8 59 42 104 75 46 33 94 67 105 75 137 95 438
320 592 443 269 215 582 508 755 706 362 411 641 877 832 1386 53 141 126 372
154 485 54 221 56 229 68 300 1 8 6 29 9 45 15 68 19 92 42 265 9 69 18 139
20 155 24 172 23 604 -1 742 -28 158 -60 254 -102 300 -27 32 -70 38 -107 15z"/>
<path d="M26187 1964 c-1 -1 -67 -5 -147 -9 -203 -10 -300 -17 -400 -30 -19
-2 -55 -7 -80 -9 -99 -11 -146 -17 -170 -21 -14 -2 -43 -7 -65 -10 -23 -3 -50
-7 -60 -9 -11 -2 -40 -7 -65 -11 -25 -3 -79 -13 -120 -21 -41 -7 -86 -16 -100
-18 -114 -19 -467 -109 -615 -156 -187 -60 -380 -142 -680 -290 -350 -172
-345 -170 -478 -220 -238 -89 -586 -180 -822 -214 -23 -4 -52 -9 -65 -11 -14
-3 -45 -8 -70 -10 -25 -3 -54 -7 -65 -9 -11 -3 -56 -8 -100 -11 -44 -4 -91 -8
-105 -11 -141 -23 -766 -22 -945 1 -16 2 -61 7 -100 10 -83 8 -148 16 -240 30
-16 3 -46 7 -65 10 -138 19 -319 54 -570 110 -9 2 -110 26 -225 53 -116 28
-226 53 -245 56 -19 3 -48 8 -64 11 -74 11 -98 -24 -54 -81 150 -197 656 -503
1178 -712 195 -78 439 -158 665 -218 89 -23 393 -87 470 -99 91 -13 173 -24
230 -30 33 -4 71 -8 85 -11 126 -21 704 -25 815 -5 289 53 899 243 1910 596
302 105 466 162 520 180 28 9 59 20 70 25 11 5 81 30 155 55 226 78 1080 379
1275 450 55 20 127 45 160 56 97 34 383 148 444 178 95 48 113 59 148 91 44
42 44 78 1 120 -45 42 -199 100 -333 125 -155 28 -273 43 -510 61 -78 6 -562
13 -568 8z"/>
</g>
</svg>
